<?xml version="1.0" encoding="UTF-8" standalone="no"?>
<!DOCTYPE svg PUBLIC "-//W3C//DTD SVG 1.1//EN" "http://www.w3.org/Graphics/SVG/1.1/DTD/svg11.dtd">
<svg xmlns="http://www.w3.org/2000/svg" version="1.1" viewBox="0.00 0.00 74.00 74.00">
<g stroke-width="5.00" fill="none" stroke-linecap="butt">
<path stroke="#e6e6e7" vector-effect="non-scaling-stroke" d="
  M 69.96 48.50
  C 68.12 48.89 66.19 49.54 64.31 49.48
  Q 30.98 48.52 7.75 49.47
  Q 6.15 49.53 5.74 48.24"
/>
<path stroke="#d6d6d7" vector-effect="non-scaling-stroke" d="
  M 5.74 48.24
  Q 5.72 32.93 6.03 17.61
  C 6.06 15.87 5.74 6.98 5.05 5.68
  A 0.54 0.54 0.0 0 0 4.03 5.93
  Q 3.90 24.55 4.13 43.34
  C 4.21 49.57 3.65 60.98 4.47 69.88
  Q 4.52 70.44 5.06 70.59
  Q 6.79 71.04 8.07 71.03
  Q 36.42 70.63 64.77 71.07
  C 66.56 71.10 68.59 70.59 70.63 70.78
  Q 71.16 70.82 71.25 70.30
  C 72.25 64.68 71.74 58.83 71.74 54.03
  Q 71.77 30.15 71.72 5.83
  Q 71.72 3.71 69.61 3.44
  Q 66.51 3.04 62.25 3.02
  Q 34.59 2.91 6.92 3.08
  Q 6.36 3.09 6.49 3.63
  C 6.91 5.40 25.80 4.45 28.26 4.55
  C 42.66 5.13 55.60 4.94 69.32 5.03
  A 0.55 0.54 90.0 0 1 69.86 5.58
  L 69.96 48.50"
/>
<path stroke="#cfcfcf" vector-effect="non-scaling-stroke" d="
  M 5.74 48.24
  L 6.01 68.65
  Q 6.02 69.19 6.56 69.19
  L 69.38 69.34
  A 0.52 0.52 0.0 0 0 69.90 68.82
  L 69.96 48.50"
/>
<path stroke="#e18487" vector-effect="non-scaling-stroke" d="
  M 61.76 36.66
  A 3.65 3.65 0.0 0 0 58.11 33.01
  L 17.89 33.01
  A 3.65 3.65 0.0 0 0 14.24 36.66
  L 14.24 37.34
  A 3.65 3.65 0.0 0 0 17.89 40.99
  L 58.11 40.99
  A 3.65 3.65 0.0 0 0 61.76 37.34
  L 61.76 36.66"
/>
</g>
<path fill="#ededee" d="
  M 0.00 0.00
  L 74.00 0.00
  L 74.00 74.00
  L 0.00 74.00
  L 0.00 0.00
  Z
  M 69.96 48.50
  C 68.12 48.89 66.19 49.54 64.31 49.48
  Q 30.98 48.52 7.75 49.47
  Q 6.15 49.53 5.74 48.24
  Q 5.72 32.93 6.03 17.61
  C 6.06 15.87 5.74 6.98 5.05 5.68
  A 0.54 0.54 0.0 0 0 4.03 5.93
  Q 3.90 24.55 4.13 43.34
  C 4.21 49.57 3.65 60.98 4.47 69.88
  Q 4.52 70.44 5.06 70.59
  Q 6.79 71.04 8.07 71.03
  Q 36.42 70.63 64.77 71.07
  C 66.56 71.10 68.59 70.59 70.63 70.78
  Q 71.16 70.82 71.25 70.30
  C 72.25 64.68 71.74 58.83 71.74 54.03
  Q 71.77 30.15 71.72 5.83
  Q 71.72 3.71 69.61 3.44
  Q 66.51 3.04 62.25 3.02
  Q 34.59 2.91 6.92 3.08
  Q 6.36 3.09 6.49 3.63
  C 6.91 5.40 25.80 4.45 28.26 4.55
  C 42.66 5.13 55.60 4.94 69.32 5.03
  A 0.55 0.54 90.0 0 1 69.86 5.58
  L 69.96 48.50
  Z
  M 61.76 36.66
  A 3.65 3.65 0.0 0 0 58.11 33.01
  L 17.89 33.01
  A 3.65 3.65 0.0 0 0 14.24 36.66
  L 14.24 37.34
  A 3.65 3.65 0.0 0 0 17.89 40.99
  L 58.11 40.99
  A 3.65 3.65 0.0 0 0 61.76 37.34
  L 61.76 36.66
  Z"
/>
<path fill="#bfbfbf" d="
  M 5.74 48.24
  L 6.01 68.65
  Q 6.02 69.19 6.56 69.19
  L 69.38 69.34
  A 0.52 0.52 0.0 0 0 69.90 68.82
  L 69.96 48.50
  L 69.86 5.58
  A 0.55 0.54 90.0 0 0 69.32 5.03
  C 55.60 4.94 42.66 5.13 28.26 4.55
  C 25.80 4.45 6.91 5.40 6.49 3.63
  Q 6.36 3.09 6.92 3.08
  Q 34.59 2.91 62.25 3.02
  Q 66.51 3.04 69.61 3.44
  Q 71.72 3.71 71.72 5.83
  Q 71.77 30.15 71.74 54.03
  C 71.74 58.83 72.25 64.68 71.25 70.30
  Q 71.16 70.82 70.63 70.78
  C 68.59 70.59 66.56 71.10 64.77 71.07
  Q 36.42 70.63 8.07 71.03
  Q 6.79 71.04 5.06 70.59
  Q 4.52 70.44 4.47 69.88
  C 3.65 60.98 4.21 49.57 4.13 43.34
  Q 3.90 24.55 4.03 5.93
  A 0.54 0.54 0.0 0 1 5.05 5.68
  C 5.74 6.98 6.06 15.87 6.03 17.61
  Q 5.72 32.93 5.74 48.24
  Z"
/>
<rect fill="#d51a1f" x="14.24" y="33.01" width="47.52" height="7.98" rx="3.65"/>
<path fill="#dfdfdf" d="
  M 5.74 48.24
  Q 6.15 49.53 7.75 49.47
  Q 30.98 48.52 64.31 49.48
  C 66.19 49.54 68.12 48.89 69.96 48.50
  L 69.90 68.82
  A 0.52 0.52 0.0 0 1 69.38 69.34
  L 6.56 69.19
  Q 6.02 69.19 6.01 68.65
  L 5.74 48.24
  Z"
/>
</svg>
