<?xml version="1.0" encoding="UTF-8" standalone="no"?>
<!DOCTYPE svg PUBLIC "-//W3C//DTD SVG 1.1//EN" "http://www.w3.org/Graphics/SVG/1.1/DTD/svg11.dtd">
<svg xmlns="http://www.w3.org/2000/svg" version="1.1" viewBox="0.00 0.00 38.00 36.00">
<g stroke-width="2.00" fill="none" stroke-linecap="butt">
<path stroke="#cfcdd0" vector-effect="non-scaling-stroke" d="
  M 34.7831 3.3772
  A 1.96 1.96 0.0 0 0 32.8369 1.4036
  L 3.2776 1.1972
  A 1.96 1.96 0.0 0 0 1.3039 3.1435
  L 1.0969 32.8028
  A 1.96 1.96 0.0 0 0 3.0431 34.7764
  L 32.6024 34.9828
  A 1.96 1.96 0.0 0 0 34.5761 33.0365
  L 34.7831 3.3772"
/>
<path stroke="#c7c5c8" vector-effect="non-scaling-stroke" d="
  M 1.61 14.99
  L 1.72 33.45
  A 0.76 0.76 0.0 0 0 2.47 34.20
  L 32.51 34.56
  Q 34.23 34.58 34.23 32.86
  L 34.18 12.48"
/>
<path stroke="#cfcdd0" vector-effect="non-scaling-stroke" d="
  M 34.18 12.48
  L 34.30 3.10
  A 1.33 1.33 0.0 0 0 32.97 1.75
  L 2.86 1.82
  A 1.06 1.06 0.0 0 0 1.80 2.87
  L 1.61 14.99"
/>
<path stroke="#e8e8e8" vector-effect="non-scaling-stroke" d="
  M 34.18 12.48
  L 34.02 18.92
  Q 34.01 19.32 33.61 19.28
  L 29.82 18.94"
/>
<path stroke="#94c2ee" vector-effect="non-scaling-stroke" d="
  M 29.82 18.94
  C 30.61 14.49 23.21 16.03 20.49 15.98
  Q 20.00 15.97 20.00 15.49
  L 20.00 8.03
  A 1.96 1.96 0.0 0 0 18.11 6.07
  C 14.93 5.96 16.00 13.44 15.98 15.48
  Q 15.98 15.99 15.47 15.99
  C 13.07 16.01 6.43 14.88 5.97 18.16"
/>
<path stroke="#e8e8e8" vector-effect="non-scaling-stroke" d="
  M 5.97 18.16
  Q 5.15 19.77 4.28 19.18
  Q 3.96 18.96 3.61 19.12
  Q 2.88 19.46 2.30 18.94
  Q 1.96 18.65 1.91 18.20
  L 1.61 14.99"
/>
<path stroke="#8cbae6" vector-effect="non-scaling-stroke" d="
  M 29.82 18.94
  Q 29.31 20.00 28.25 19.99
  Q 24.41 19.98 20.49 20.01
  Q 20.00 20.02 20.00 20.51
  L 20.00 28.00
  A 1.91 1.91 0.0 0 1 17.83 29.89
  C 14.95 29.51 16.01 22.75 16.02 20.53
  Q 16.02 20.00 15.49 20.00
  C 13.26 20.01 6.52 20.97 5.97 18.16"
/>
</g>
<path fill="#f0f0f0" d="
  M 0.00 0.00
  L 38.00 0.00
  L 38.00 36.00
  L 0.00 36.00
  L 0.00 0.00
  Z
  M 34.7831 3.3772
  A 1.96 1.96 0.0 0 0 32.8369 1.4036
  L 3.2776 1.1972
  A 1.96 1.96 0.0 0 0 1.3039 3.1435
  L 1.0969 32.8028
  A 1.96 1.96 0.0 0 0 3.0431 34.7764
  L 32.6024 34.9828
  A 1.96 1.96 0.0 0 0 34.5761 33.0365
  L 34.7831 3.3772
  Z"
/>
<path fill="#aeaab0" d="
  M 34.5761 33.0365
  A 1.96 1.96 0.0 0 1 32.6024 34.9828
  L 3.0431 34.7764
  A 1.96 1.96 0.0 0 1 1.0969 32.8028
  L 1.3039 3.1435
  A 1.96 1.96 0.0 0 1 3.2776 1.1972
  L 32.8369 1.4036
  A 1.96 1.96 0.0 0 1 34.7831 3.3772
  L 34.5761 33.0365
  Z
  M 1.61 14.99
  L 1.72 33.45
  A 0.76 0.76 0.0 0 0 2.47 34.20
  L 32.51 34.56
  Q 34.23 34.58 34.23 32.86
  L 34.18 12.48
  L 34.30 3.10
  A 1.33 1.33 0.0 0 0 32.97 1.75
  L 2.86 1.82
  A 1.06 1.06 0.0 0 0 1.80 2.87
  L 1.61 14.99
  Z"
/>
<path fill="#f0f0f0" d="
  M 34.18 12.48
  L 34.02 18.92
  Q 34.01 19.32 33.61 19.28
  L 29.82 18.94
  C 30.61 14.49 23.21 16.03 20.49 15.98
  Q 20.00 15.97 20.00 15.49
  L 20.00 8.03
  A 1.96 1.96 0.0 0 0 18.11 6.07
  C 14.93 5.96 16.00 13.44 15.98 15.48
  Q 15.98 15.99 15.47 15.99
  C 13.07 16.01 6.43 14.88 5.97 18.16
  Q 5.15 19.77 4.28 19.18
  Q 3.96 18.96 3.61 19.12
  Q 2.88 19.46 2.30 18.94
  Q 1.96 18.65 1.91 18.20
  L 1.61 14.99
  L 1.80 2.87
  A 1.06 1.06 0.0 0 1 2.86 1.82
  L 32.97 1.75
  A 1.33 1.33 0.0 0 1 34.30 3.10
  L 34.18 12.48
  Z"
/>
<path fill="#3894eb" d="
  M 29.82 18.94
  Q 29.31 20.00 28.25 19.99
  Q 24.41 19.98 20.49 20.01
  Q 20.00 20.02 20.00 20.51
  L 20.00 28.00
  A 1.91 1.91 0.0 0 1 17.83 29.89
  C 14.95 29.51 16.01 22.75 16.02 20.53
  Q 16.02 20.00 15.49 20.00
  C 13.26 20.01 6.52 20.97 5.97 18.16
  C 6.43 14.88 13.07 16.01 15.47 15.99
  Q 15.98 15.99 15.98 15.48
  C 16.00 13.44 14.93 5.96 18.11 6.07
  A 1.96 1.96 0.0 0 1 20.00 8.03
  L 20.00 15.49
  Q 20.00 15.97 20.49 15.98
  C 23.21 16.03 30.61 14.49 29.82 18.94
  Z"
/>
<path fill="#e0e0e0" d="
  M 34.18 12.48
  L 34.23 32.86
  Q 34.23 34.58 32.51 34.56
  L 2.47 34.20
  A 0.76 0.76 0.0 0 1 1.72 33.45
  L 1.61 14.99
  L 1.91 18.20
  Q 1.96 18.65 2.30 18.94
  Q 2.88 19.46 3.61 19.12
  Q 3.96 18.96 4.28 19.18
  Q 5.15 19.77 5.97 18.16
  C 6.52 20.97 13.26 20.01 15.49 20.00
  Q 16.02 20.00 16.02 20.53
  C 16.01 22.75 14.95 29.51 17.83 29.89
  A 1.91 1.91 0.0 0 0 20.00 28.00
  L 20.00 20.51
  Q 20.00 20.02 20.49 20.01
  Q 24.41 19.98 28.25 19.99
  Q 29.31 20.00 29.82 18.94
  L 33.61 19.28
  Q 34.01 19.32 34.02 18.92
  L 34.18 12.48
  Z"
/>
</svg>
