<?xml version="1.0" encoding="UTF-8" standalone="no"?>
<!DOCTYPE svg PUBLIC "-//W3C//DTD SVG 1.1//EN" "http://www.w3.org/Graphics/SVG/1.1/DTD/svg11.dtd">
<svg xmlns="http://www.w3.org/2000/svg" version="1.1" viewBox="0.00 0.00 34.00 68.00">
<g stroke-width="5.00" fill="none" stroke-linecap="butt">
<path stroke="#b2b3b3" stroke-opacity="0.698" vector-effect="non-scaling-stroke" d="
  M 0.47 1.47
  Q 0.08 16.56 0.26 31.62
  C 0.27 32.38 0.79 33.19 1.46 33.39"
/>
<path stroke="#949696" stroke-opacity="0.698" vector-effect="non-scaling-stroke" d="
  M 1.46 33.39
  Q 1.75 34.11 1.50 34.62"
/>
<path stroke="#bfc1c1" stroke-opacity="0.698" vector-effect="non-scaling-stroke" d="
  M 1.50 34.62
  Q 1.52 34.08 1.24 34.74"
/>
<path stroke="#b2b3b3" stroke-opacity="0.698" vector-effect="non-scaling-stroke" d="
  M 1.24 34.74
  C 0.69 35.07 0.27 35.60 0.27 36.29
  Q 0.22 51.40 0.26 65.98
  A 1.77 1.77 0.0 0 0 2.03 67.75
  L 31.72 67.75
  A 1.99 1.99 0.0 0 0 33.71 65.75
  L 33.57 35.23"
/>
<path stroke="#bfc1c1" stroke-opacity="0.698" vector-effect="non-scaling-stroke" d="
  M 33.57 35.23
  Q 32.90 34.96 32.52 34.39"
/>
<path stroke="#949696" stroke-opacity="0.698" vector-effect="non-scaling-stroke" d="
  M 32.52 34.39
  Q 31.97 33.83 32.98 32.99"
/>
<path stroke="#b2b3b3" stroke-opacity="0.698" vector-effect="non-scaling-stroke" d="
  M 32.98 32.99
  L 33.35 32.65
  Q 33.73 32.30 33.73 31.78
  C 33.75 27.85 34.51 2.22 32.92 0.75"
/>
<path stroke="#bfc1c1" stroke-opacity="0.698" vector-effect="non-scaling-stroke" d="
  M 32.92 0.75
  C 32.38 0.50 31.92 0.26 31.32 0.25
  Q 16.78 0.24 2.25 0.26
  Q 1.36 0.26 0.47 1.47"
/>
<path stroke="#eaeaea" vector-effect="non-scaling-stroke" d="
  M 32.92 0.75
  C 33.31 4.87 34.15 13.04 32.43 17.27
  Q 32.25 17.72 31.79 17.85
  L 28.17 18.85"
/>
<path stroke="#94c2f0" vector-effect="non-scaling-stroke" d="
  M 28.17 18.85
  Q 29.49 17.11 28.51 15.55
  A 1.06 1.04 73.8 0 0 27.62 15.05
  L 19.49 14.98
  Q 19.05 14.97 19.04 14.54
  C 19.00 12.38 20.14 5.13 16.85 5.02
  A 1.79 1.78 0.9 0 0 15.00 6.80
  L 15.00 14.52
  Q 15.00 15.11 14.41 15.06
  Q 9.37 14.66 5.33 15.62"
/>
<path stroke="#eaeaea" vector-effect="non-scaling-stroke" d="
  M 5.33 15.62
  Q 4.18 16.70 1.99 15.98
  Q 1.49 15.82 1.51 15.30
  Q 1.52 14.80 1.39 14.32
  A 0.18 0.18 0.0 0 0 1.03 14.36
  Q 1.02 15.06 0.89 15.70
  Q 0.81 16.09 0.80 15.70
  L 0.47 1.47"
/>
<path stroke="#cccccc" vector-effect="non-scaling-stroke" d="
  M 32.98 32.99
  C 30.89 33.84 28.99 33.25 27.25 33.24
  Q 14.39 33.16 1.46 33.39"
/>
<path stroke="#8ab9e6" vector-effect="non-scaling-stroke" d="
  M 5.33 15.62
  C 3.96 20.64 11.65 18.97 14.51 19.02
  Q 15.00 19.02 15.00 19.51
  L 15.00 26.77
  Q 15.00 28.93 17.16 28.81
  C 19.99 28.65 19.00 21.47 19.04 19.48
  Q 19.05 18.99 19.54 18.98
  L 28.17 18.85"
/>
<path stroke="#d5d5d5" vector-effect="non-scaling-stroke" d="
  M 32.52 34.39
  L 1.50 34.62"
/>
<path stroke="#eaeaea" vector-effect="non-scaling-stroke" d="
  M 33.57 35.23
  Q 33.14 42.31 33.16 49.39
  C 33.16 50.51 32.67 51.73 32.52 52.89
  Q 32.44 53.41 31.95 53.61
  Q 29.48 54.61 28.22 52.83"
/>
<path stroke="#a8cdf2" vector-effect="non-scaling-stroke" d="
  M 28.22 52.83
  Q 29.46 51.12 28.52 49.56
  Q 28.22 49.05 27.63 49.05
  L 19.49 48.98
  Q 19.00 48.97 19.00 48.49
  L 19.00 41.00
  A 1.97 1.96 1.7 0 0 17.15 39.04
  C 13.94 38.85 14.98 46.54 14.97 48.48
  Q 14.97 48.98 14.46 48.99
  C 12.00 49.01 4.08 47.58 5.34 52.04"
/>
<path stroke="#eaeaea" vector-effect="non-scaling-stroke" d="
  M 5.34 52.04
  L 1.77 52.98
  A 0.22 0.22 0.0 0 1 1.50 52.77
  Q 1.50 52.64 1.51 52.50
  Q 1.53 51.93 1.33 52.47
  L 0.96 53.49
  Q 0.73 54.10 0.73 53.44
  C 0.73 48.60 -0.26 38.96 1.24 34.74"
/>
<path stroke="#9fc3e8" vector-effect="non-scaling-stroke" d="
  M 5.34 52.04
  C 5.97 53.55 12.83 53.00 14.50 53.00
  Q 15.00 53.00 15.00 53.51
  L 15.00 60.77
  Q 15.00 62.93 17.16 62.81
  C 19.99 62.65 19.00 55.47 19.04 53.47
  Q 19.05 52.98 19.54 52.97
  L 28.22 52.83"
/>
</g>
<path fill="#3d4241" fill-opacity="0.396" d="
  M 0.00 0.00
  L 34.00 0.00
  L 34.00 68.00
  L 0.00 68.00
  L 0.00 0.00
  Z
  M 0.47 1.47
  Q 0.08 16.56 0.26 31.62
  C 0.27 32.38 0.79 33.19 1.46 33.39
  Q 1.75 34.11 1.50 34.62
  Q 1.52 34.08 1.24 34.74
  C 0.69 35.07 0.27 35.60 0.27 36.29
  Q 0.22 51.40 0.26 65.98
  A 1.77 1.77 0.0 0 0 2.03 67.75
  L 31.72 67.75
  A 1.99 1.99 0.0 0 0 33.71 65.75
  L 33.57 35.23
  Q 32.90 34.96 32.52 34.39
  Q 31.97 33.83 32.98 32.99
  L 33.35 32.65
  Q 33.73 32.30 33.73 31.78
  C 33.75 27.85 34.51 2.22 32.92 0.75
  C 32.38 0.50 31.92 0.26 31.32 0.25
  Q 16.78 0.24 2.25 0.26
  Q 1.36 0.26 0.47 1.47
  Z"
/>
<path fill="#f3f3f3" d="
  M 32.92 0.75
  C 33.31 4.87 34.15 13.04 32.43 17.27
  Q 32.25 17.72 31.79 17.85
  L 28.17 18.85
  Q 29.49 17.11 28.51 15.55
  A 1.06 1.04 73.8 0 0 27.62 15.05
  L 19.49 14.98
  Q 19.05 14.97 19.04 14.54
  C 19.00 12.38 20.14 5.13 16.85 5.02
  A 1.79 1.78 0.9 0 0 15.00 6.80
  L 15.00 14.52
  Q 15.00 15.11 14.41 15.06
  Q 9.37 14.66 5.33 15.62
  Q 4.18 16.70 1.99 15.98
  Q 1.49 15.82 1.51 15.30
  Q 1.52 14.80 1.39 14.32
  A 0.18 0.18 0.0 0 0 1.03 14.36
  Q 1.02 15.06 0.89 15.70
  Q 0.81 16.09 0.80 15.70
  L 0.47 1.47
  Q 1.36 0.26 2.25 0.26
  Q 16.78 0.24 31.32 0.25
  C 31.92 0.26 32.38 0.50 32.92 0.75
  Z"
/>
<path fill="#e0e0e0" d="
  M 32.92 0.75
  C 34.51 2.22 33.75 27.85 33.73 31.78
  Q 33.73 32.30 33.35 32.65
  L 32.98 32.99
  C 30.89 33.84 28.99 33.25 27.25 33.24
  Q 14.39 33.16 1.46 33.39
  C 0.79 33.19 0.27 32.38 0.26 31.62
  Q 0.08 16.56 0.47 1.47
  L 0.80 15.70
  Q 0.81 16.09 0.89 15.70
  Q 1.02 15.06 1.03 14.36
  A 0.18 0.18 0.0 0 1 1.39 14.32
  Q 1.52 14.80 1.51 15.30
  Q 1.49 15.82 1.99 15.98
  Q 4.18 16.70 5.33 15.62
  C 3.96 20.64 11.65 18.97 14.51 19.02
  Q 15.00 19.02 15.00 19.51
  L 15.00 26.77
  Q 15.00 28.93 17.16 28.81
  C 19.99 28.65 19.00 21.47 19.04 19.48
  Q 19.05 18.99 19.54 18.98
  L 28.17 18.85
  L 31.79 17.85
  Q 32.25 17.72 32.43 17.27
  C 34.15 13.04 33.31 4.87 32.92 0.75
  Z"
/>
<path fill="#3491ec" d="
  M 28.17 18.85
  L 19.54 18.98
  Q 19.05 18.99 19.04 19.48
  C 19.00 21.47 19.99 28.65 17.16 28.81
  Q 15.00 28.93 15.00 26.77
  L 15.00 19.51
  Q 15.00 19.02 14.51 19.02
  C 11.65 18.97 3.96 20.64 5.33 15.62
  Q 9.37 14.66 14.41 15.06
  Q 15.00 15.11 15.00 14.52
  L 15.00 6.80
  A 1.79 1.78 0.9 0 1 16.85 5.02
  C 20.14 5.13 19.00 12.38 19.04 14.54
  Q 19.05 14.97 19.49 14.98
  L 27.62 15.05
  A 1.06 1.04 73.8 0 1 28.51 15.55
  Q 29.49 17.11 28.17 18.85
  Z"
/>
<path fill="#b7b7b7" d="
  M 32.98 32.99
  Q 31.97 33.83 32.52 34.39
  L 1.50 34.62
  Q 1.75 34.11 1.46 33.39
  Q 14.39 33.16 27.25 33.24
  C 28.99 33.25 30.89 33.84 32.98 32.99
  Z"
/>
<path fill="#f3f3f3" d="
  M 1.50 34.62
  L 32.52 34.39
  Q 32.90 34.96 33.57 35.23
  Q 33.14 42.31 33.16 49.39
  C 33.16 50.51 32.67 51.73 32.52 52.89
  Q 32.44 53.41 31.95 53.61
  Q 29.48 54.61 28.22 52.83
  Q 29.46 51.12 28.52 49.56
  Q 28.22 49.05 27.63 49.05
  L 19.49 48.98
  Q 19.00 48.97 19.00 48.49
  L 19.00 41.00
  A 1.97 1.96 1.7 0 0 17.15 39.04
  C 13.94 38.85 14.98 46.54 14.97 48.48
  Q 14.97 48.98 14.46 48.99
  C 12.00 49.01 4.08 47.58 5.34 52.04
  L 1.77 52.98
  A 0.22 0.22 0.0 0 1 1.50 52.77
  Q 1.50 52.64 1.51 52.50
  Q 1.53 51.93 1.33 52.47
  L 0.96 53.49
  Q 0.73 54.10 0.73 53.44
  C 0.73 48.60 -0.26 38.96 1.24 34.74
  Q 1.52 34.08 1.50 34.62
  Z"
/>
<path fill="#e0e0e0" d="
  M 1.24 34.74
  C -0.26 38.96 0.73 48.60 0.73 53.44
  Q 0.73 54.10 0.96 53.49
  L 1.33 52.47
  Q 1.53 51.93 1.51 52.50
  Q 1.50 52.64 1.50 52.77
  A 0.22 0.22 0.0 0 0 1.77 52.98
  L 5.34 52.04
  C 5.97 53.55 12.83 53.00 14.50 53.00
  Q 15.00 53.00 15.00 53.51
  L 15.00 60.77
  Q 15.00 62.93 17.16 62.81
  C 19.99 62.65 19.00 55.47 19.04 53.47
  Q 19.05 52.98 19.54 52.97
  L 28.22 52.83
  Q 29.48 54.61 31.95 53.61
  Q 32.44 53.41 32.52 52.89
  C 32.67 51.73 33.16 50.51 33.16 49.39
  Q 33.14 42.31 33.57 35.23
  L 33.71 65.75
  A 1.99 1.99 0.0 0 1 31.72 67.75
  L 2.03 67.75
  A 1.77 1.77 0.0 0 1 0.26 65.98
  Q 0.22 51.40 0.27 36.29
  C 0.27 35.60 0.69 35.07 1.24 34.74
  Z"
/>
<path fill="#5da6f0" d="
  M 28.22 52.83
  L 19.54 52.97
  Q 19.05 52.98 19.04 53.47
  C 19.00 55.47 19.99 62.65 17.16 62.81
  Q 15.00 62.93 15.00 60.77
  L 15.00 53.51
  Q 15.00 53.00 14.50 53.00
  C 12.83 53.00 5.97 53.55 5.34 52.04
  C 4.08 47.58 12.00 49.01 14.46 48.99
  Q 14.97 48.98 14.97 48.48
  C 14.98 46.54 13.94 38.85 17.15 39.04
  A 1.97 1.96 1.7 0 1 19.00 41.00
  L 19.00 48.49
  Q 19.00 48.97 19.49 48.98
  L 27.63 49.05
  Q 28.22 49.05 28.52 49.56
  Q 29.46 51.12 28.22 52.83
  Z"
/>
</svg>
