<?xml version="1.0" encoding="UTF-8" standalone="no"?>
<!DOCTYPE svg PUBLIC "-//W3C//DTD SVG 1.1//EN" "http://www.w3.org/Graphics/SVG/1.1/DTD/svg11.dtd">
<svg xmlns="http://www.w3.org/2000/svg" version="1.1" viewBox="0.00 0.00 39.00 38.00">
<g stroke-width="5.00" fill="none" stroke-linecap="butt">
<path stroke="#d8d7d9" vector-effect="non-scaling-stroke" d="
  M 35.67 4.25
  A 1.98 1.98 0.0 0 0 33.69 2.27
  L 4.27 2.27
  A 1.98 1.98 0.0 0 0 2.29 4.25
  L 2.29 33.75
  A 1.98 1.98 0.0 0 0 4.27 35.73
  L 33.69 35.73
  A 1.98 1.98 0.0 0 0 35.67 33.75
  L 35.67 4.25"
/>
<path stroke="#d0cfd1" vector-effect="non-scaling-stroke" d="
  M 2.60 13.76
  L 2.49 33.69
  A 1.57 1.56 0.2 0 0 4.06 35.26
  L 34.09 35.23
  A 1.21 1.20 -90.0 0 0 35.29 34.02
  L 35.19 18.20"
/>
<path stroke="#d8d7d9" vector-effect="non-scaling-stroke" d="
  M 35.19 18.20
  L 35.19 3.93
  A 1.18 1.18 0.0 0 0 34.01 2.75
  L 3.75 2.75
  A 0.75 0.75 0.0 0 0 3.00 3.47
  L 2.60 13.76"
/>
<path stroke="#e8e8e8" vector-effect="non-scaling-stroke" d="
  M 35.19 18.20
  Q 32.93 20.00 30.76 19.19"
/>
<path stroke="#e38587" vector-effect="non-scaling-stroke" d="
  M 30.76 19.19
  Q 31.05 17.06 28.74 17.02
  Q 24.11 16.93 9.19 17.02
  C 8.28 17.03 7.51 17.56 7.10 18.25"
/>
<path stroke="#e8e8e8" vector-effect="non-scaling-stroke" d="
  M 7.10 18.25
  C 1.96 18.92 3.17 16.85 2.60 13.76"
/>
<path stroke="#db7d7f" vector-effect="non-scaling-stroke" d="
  M 7.10 18.25
  Q 6.70 20.99 9.00 21.00
  C 11.90 21.00 28.70 21.64 30.06 20.57
  Q 30.88 19.93 30.76 19.19"
/>
</g>
<path fill="#f0f0f0" d="
  M 0.00 0.00
  L 39.00 0.00
  L 39.00 38.00
  L 0.00 38.00
  L 0.00 0.00
  Z
  M 35.67 4.25
  A 1.98 1.98 0.0 0 0 33.69 2.27
  L 4.27 2.27
  A 1.98 1.98 0.0 0 0 2.29 4.25
  L 2.29 33.75
  A 1.98 1.98 0.0 0 0 4.27 35.73
  L 33.69 35.73
  A 1.98 1.98 0.0 0 0 35.67 33.75
  L 35.67 4.25
  Z"
/>
<path fill="#c0bdc1" d="
  M 35.67 33.75
  A 1.98 1.98 0.0 0 1 33.69 35.73
  L 4.27 35.73
  A 1.98 1.98 0.0 0 1 2.29 33.75
  L 2.29 4.25
  A 1.98 1.98 0.0 0 1 4.27 2.27
  L 33.69 2.27
  A 1.98 1.98 0.0 0 1 35.67 4.25
  L 35.67 33.75
  Z
  M 2.60 13.76
  L 2.49 33.69
  A 1.57 1.56 0.2 0 0 4.06 35.26
  L 34.09 35.23
  A 1.21 1.20 -90.0 0 0 35.29 34.02
  L 35.19 18.20
  L 35.19 3.93
  A 1.18 1.18 0.0 0 0 34.01 2.75
  L 3.75 2.75
  A 0.75 0.75 0.0 0 0 3.00 3.47
  L 2.60 13.76
  Z"
/>
<path fill="#f0f0f0" d="
  M 35.19 18.20
  Q 32.93 20.00 30.76 19.19
  Q 31.05 17.06 28.74 17.02
  Q 24.11 16.93 9.19 17.02
  C 8.28 17.03 7.51 17.56 7.10 18.25
  C 1.96 18.92 3.17 16.85 2.60 13.76
  L 3.00 3.47
  A 0.75 0.75 0.0 0 1 3.75 2.75
  L 34.01 2.75
  A 1.18 1.18 0.0 0 1 35.19 3.93
  L 35.19 18.20
  Z"
/>
<path fill="#e0e0e0" d="
  M 2.60 13.76
  C 3.17 16.85 1.96 18.92 7.10 18.25
  Q 6.70 20.99 9.00 21.00
  C 11.90 21.00 28.70 21.64 30.06 20.57
  Q 30.88 19.93 30.76 19.19
  Q 32.93 20.00 35.19 18.20
  L 35.29 34.02
  A 1.21 1.20 -90.0 0 1 34.09 35.23
  L 4.06 35.26
  A 1.57 1.56 0.2 0 1 2.49 33.69
  L 2.60 13.76
  Z"
/>
<path fill="#d51a1e" d="
  M 30.76 19.19
  Q 30.88 19.93 30.06 20.57
  C 28.70 21.64 11.90 21.00 9.00 21.00
  Q 6.70 20.99 7.10 18.25
  C 7.51 17.56 8.28 17.03 9.19 17.02
  Q 24.11 16.93 28.74 17.02
  Q 31.05 17.06 30.76 19.19
  Z"
/>
</svg>
